<svg width="98" height="82" viewBox="0 0 98 82" fill="none" xmlns="http://www.w3.org/2000/svg">
<path d="M67.0063 47.0865C67.0063 55.6629 58.7352 62.6154 48.5323 62.6154C38.3294 62.6154 30.0584 55.6629 30.0584 47.0865C30.0584 38.5102 38.3294 31.5577 48.5323 31.5577C58.7352 31.5577 67.0063 38.5102 67.0063 47.0865Z" stroke="#070707"/>
<path d="M0.5 68.5L0.500002 30.6514C0.500002 24.2908 6.63417 19.1346 14.2011 19.1346C19.3906 19.1346 24.1348 16.6699 26.4557 12.7682L29.5608 7.54802C32.1301 3.22851 37.3823 0.499982 43.1276 0.5L53.9372 0.500035C59.6824 0.500053 64.9345 3.22859 67.5039 7.54807L70.609 12.7683C72.9299 16.6701 77.674 19.1347 82.8636 19.1347C90.4305 19.1347 96.5647 24.2909 96.5647 30.6515V68.5C96.5647 75.5416 89.7737 81.25 81.3966 81.25H15.6681C7.29099 81.25 0.5 75.5416 0.5 68.5Z" stroke="#070707"/>
</svg>
